<svg xmlns="http://www.w3.org/2000/svg" width="35" height="35" viewBox="0 0 35 35"><defs><style>.a{fill:#00bcd4;}.b{fill:#fff;font-size:18px;font-family:Roboto-Bold, Roboto;font-weight:700;}.c,.d{stroke:none;}</style></defs><g transform="translate(-745 -2036)"><g class="a" transform="translate(745 2036)"><path class="c" d="M 17.5 34.75 C 12.89235973358154 34.75 8.560500144958496 32.9556884765625 5.302410125732422 29.69758987426758 C 2.044310092926025 26.43950080871582 0.25 22.10763931274414 0.25 17.5 C 0.25 12.89235973358154 2.044310092926025 8.560500144958496 5.302410125732422 5.302410125732422 C 8.560500144958496 2.044310092926025 12.89235973358154 0.25 17.5 0.25 C 22.10763931274414 0.25 26.43950080871582 2.044310092926025 29.69758987426758 5.302410125732422 C 32.9556884765625 8.560500144958496 34.75 12.89235973358154 34.75 17.5 C 34.75 22.10763931274414 32.9556884765625 26.43950080871582 29.69758987426758 29.69758987426758 C 26.43950080871582 32.9556884765625 22.10763931274414 34.75 17.5 34.75 Z"/><path class="d" d="M 17.5 0.5 C 12.95914077758789 0.5 8.690059661865234 2.268310546875 5.479190826416016 5.479190826416016 C 2.268310546875 8.690059661865234 0.5 12.95914077758789 0.5 17.5 C 0.5 22.04085922241211 2.268310546875 26.30994033813477 5.479190826416016 29.52080917358398 C 8.690059661865234 32.731689453125 12.95914077758789 34.5 17.5 34.5 C 22.04085922241211 34.5 26.30994033813477 32.731689453125 29.52080917358398 29.52080917358398 C 32.731689453125 26.30994033813477 34.5 22.04085922241211 34.5 17.5 C 34.5 12.95914077758789 32.731689453125 8.690059661865234 29.52080917358398 5.479190826416016 C 26.30994033813477 2.268310546875 22.04085922241211 0.5 17.5 0.5 M 17.5 0 C 27.16497993469238 0 35 7.835020065307617 35 17.5 C 35 27.16497993469238 27.16497993469238 35 17.5 35 C 7.835020065307617 35 0 27.16497993469238 0 17.5 C 0 7.835020065307617 7.835020065307617 0 17.5 0 Z"/></g><text class="b" transform="translate(762 2060)"><tspan x="-5.164" y="0">1</tspan></text></g></svg>