<svg xmlns="http://www.w3.org/2000/svg" width="25" height="25" viewBox="0 0 25 25"><defs><style>.a{fill:#2cb927;}.b{fill:#fff;font-size:12px;font-family:Roboto-Bold, Roboto;font-weight:700;}.c,.d{stroke:none;}</style></defs><g transform="translate(-986 -2294)"><g class="a" transform="translate(986 2294)"><path class="c" d="M 12.5 24.75 C 9.227910041809082 24.75 6.151659965515137 23.47578048706055 3.837939977645874 21.16205978393555 C 1.524219989776611 18.84833908081055 0.25 15.77208995819092 0.25 12.5 C 0.25 9.227910041809082 1.524219989776611 6.151659965515137 3.837939977645874 3.837939977645874 C 6.151659965515137 1.524219989776611 9.227910041809082 0.25 12.5 0.25 C 15.77208995819092 0.25 18.84833908081055 1.524219989776611 21.16205978393555 3.837939977645874 C 23.47578048706055 6.151659965515137 24.75 9.227910041809082 24.75 12.5 C 24.75 15.77208995819092 23.47578048706055 18.84833908081055 21.16205978393555 21.16205978393555 C 18.84833908081055 23.47578048706055 15.77208995819092 24.75 12.5 24.75 Z"/><path class="d" d="M 12.5 0.5 C 9.294679641723633 0.5 6.281219482421875 1.748220443725586 4.014720916748047 4.014720916748047 C 1.748220443725586 6.281219482421875 0.5 9.294679641723633 0.5 12.5 C 0.5 15.70532035827637 1.748220443725586 18.71878051757813 4.014720916748047 20.98527908325195 C 6.281219482421875 23.25177955627441 9.294679641723633 24.5 12.5 24.5 C 15.70532035827637 24.5 18.71878051757813 23.25177955627441 20.98527908325195 20.98527908325195 C 23.25177955627441 18.71878051757813 24.5 15.70532035827637 24.5 12.5 C 24.5 9.294679641723633 23.25177955627441 6.281219482421875 20.98527908325195 4.014720916748047 C 18.71878051757813 1.748220443725586 15.70532035827637 0.5 12.5 0.5 M 12.5 0 C 19.40356063842773 0 25 5.596439361572266 25 12.5 C 25 19.40356063842773 19.40356063842773 25 12.5 25 C 5.596439361572266 25 0 19.40356063842773 0 12.5 C 0 5.596439361572266 5.596439361572266 0 12.5 0 Z"/></g><text class="b" transform="translate(999 2311)"><tspan x="-3.442" y="0">2</tspan></text></g></svg>